# xmcd
#
# Track frame offsets:
#	150
#	16032
#	30965
#	43425
#	63535
#	78345
#	96587
#	112632
#	129215
#	146887
#	159270
#	177615
#	194827
#	217335
#	233737
#	243365
#	262062
#	277615
#	301762
#
# Disc length: 4250 seconds
#
# Revision: 5
# Processed by: cddbd v1.5.2PL0 Copyright (c) Steve Scherf et al.
# Submitted via: audiograbber 1.83.01
#
DISCID=09109813
DTITLE=Willie Nelson - Outlaws And Angels [UMG]
DYEAR=2004
DGENRE=Country
TTITLE0=Willie Nelson and Toby Keith and Joe Walsh - Georgia On A Fast Train
TTITLE1=Willie Nelson and Toby Keith and Joe Walsh and Merle Haggard - Ramblin' Fever
TTITLE2=Willie Nelson and Kid Rock - Shotgun Willie
TTITLE3=Willie Nelson and Al Green - Rainin' In My Heart
TTITLE4=Willie Nelson and Shelby Lynne - Stormy Weather
TTITLE5=Willie Nelson and Carole King - Will You Still Love Me Tomorrow
TTITLE6=Willie Nelson and Toots Hibbert - Still Is Still Moving To Me
TTITLE7=Willie Nelson and Ben Harper - Midnight Rider
TTITLE8=Willie Nelson and Toots Hibbert - Pressure Drop
TTITLE9=Willie Nelson and Lee Ann Womack - I'll Never Be Free
TTITLE10=Willie Nelson and The Holmes Brothers - Opportunity To Cry
TTITLE11=Willie Nelson and Los Lonely Boys - Cisco Kid
TTITLE12=Willie Nelson and Merle Haggard and Toby Keith - Pancho and Lefty
TTITLE13=Willie Nelson and Lucinda Williams - Overtime
TTITLE14=Willie Nelson and Merle Haggard and Toby Keith - Mama Tried
TTITLE15=Willie Nelson and Rickie Lee Jones - Comes Love
TTITLE16=Willie Nelson and Keith Richards - We Had It All
TTITLE17=Willie Nelson and Jerry Lee Lewis, Kid Rock, Keith Richards And Merle Ha
TTITLE17=ggard - Whole Lotta Shakin' Goin' On
TTITLE18=Willie Nelson and Merle Haggard - I'll Fly Away
EXTD=YEAR: 2004
EXTT0=
EXTT1=
EXTT2=
EXTT3=
EXTT4=
EXTT5=
EXTT6=
EXTT7=
EXTT8=
EXTT9=
EXTT10=
EXTT11=
EXTT12=
EXTT13=
EXTT14=
EXTT15=
EXTT16=
EXTT17=
EXTT18=
PLAYORDER=
